<?xml version="1.0" encoding="UTF-8"?>
<svg xmlns="http://www.w3.org/2000/svg" xmlns:xlink="http://www.w3.org/1999/xlink" width="4000" height="4000" viewBox="0 0 4000 4000">
<path fill-rule="evenodd" fill="rgb(0%, 0%, 0%)" fill-opacity="1" d="M 644.367188 3562.5 C 644.363281 3562.5 644.355469 3562.5 644.351562 3562.5 C 589.007812 3562.511719 536.480469 3538.074219 500.847656 3495.726562 C 465.277344 3453.460938 450.160156 3397.664062 459.519531 3343.230469 C 595.34375 2615.429688 1233.601562 2062.5 2000 2062.5 C 2766.339844 2062.5 3404.589844 2615.371094 3537.210938 3343.679688 C 3546.441406 3397.195312 3531.589844 3452.0625 3496.621094 3493.625 C 3461.609375 3535.234375 3410.011719 3559.257812 3355.628906 3559.257812 C 3355.519531 3559.257812 3355.410156 3559.257812 3355.300781 3559.257812 C 2743.71875 3562.5 1255.949219 3562.5 644.367188 3562.5 Z M 2000 437.5 C 2413.941406 437.5 2750 773.558594 2750 1187.5 C 2750 1601.441406 2413.941406 1937.5 2000 1937.5 C 1586.058594 1937.5 1250 1601.441406 1250 1187.5 C 1250 773.558594 1586.058594 437.5 2000 437.5 "/>
</svg>
